<mxfile host="app.diagrams.net" modified="2022-01-09T15:03:33.426Z" agent="5.0 (Windows NT 10.0; Win64; x64) AppleWebKit/537.36 (KHTML, like Gecko) Chrome/96.0.4664.110 Safari/537.36" etag="Ccnu0Gi6KFTKCKP3cKup" version="15.8.2" type="github">
  <diagram id="DVm1cHAixFEP3yzzqtct" name="第 1 页">
    <mxGraphModel dx="782" dy="457" grid="1" gridSize="10" guides="1" tooltips="1" connect="1" arrows="1" fold="1" page="1" pageScale="1" pageWidth="827" pageHeight="1169" math="0" shadow="0">
      <root>
        <mxCell id="0" />
        <mxCell id="1" parent="0" />
        <mxCell id="v-lsGg8hNjmcbaT2HnY6-23" value="" style="ellipse;whiteSpace=wrap;html=1;aspect=fixed;" vertex="1" parent="1">
          <mxGeometry x="435" y="160" width="140" height="140" as="geometry" />
        </mxCell>
        <mxCell id="v-lsGg8hNjmcbaT2HnY6-12" value="" style="rounded=0;whiteSpace=wrap;html=1;" vertex="1" parent="1">
          <mxGeometry x="70" y="50" width="170" height="410" as="geometry" />
        </mxCell>
        <mxCell id="v-lsGg8hNjmcbaT2HnY6-4" value="导购归因" style="rounded=0;whiteSpace=wrap;html=1;" vertex="1" parent="1">
          <mxGeometry x="294" y="290" width="120" height="60" as="geometry" />
        </mxCell>
        <mxCell id="v-lsGg8hNjmcbaT2HnY6-5" value="&lt;b&gt;CTR&lt;/b&gt;" style="ellipse;whiteSpace=wrap;html=1;" vertex="1" parent="1">
          <mxGeometry x="480" y="180" width="50" height="40" as="geometry" />
        </mxCell>
        <mxCell id="v-lsGg8hNjmcbaT2HnY6-6" value="CVR" style="ellipse;whiteSpace=wrap;html=1;fontStyle=1" vertex="1" parent="1">
          <mxGeometry x="480" y="250" width="50" height="40" as="geometry" />
        </mxCell>
        <mxCell id="v-lsGg8hNjmcbaT2HnY6-7" value="人" style="whiteSpace=wrap;html=1;aspect=fixed;" vertex="1" parent="1">
          <mxGeometry x="90" y="110" width="50" height="50" as="geometry" />
        </mxCell>
        <mxCell id="v-lsGg8hNjmcbaT2HnY6-8" value="货&lt;span style=&quot;color: rgba(0 , 0 , 0 , 0) ; font-family: monospace ; font-size: 0px&quot;&gt;%3CmxGraphModel%3E%3Croot%3E%3CmxCell%20id%3D%220%22%2F%3E%3CmxCell%20id%3D%221%22%20parent%3D%220%22%2F%3E%3CmxCell%20id%3D%222%22%20value%3D%22%E4%BA%BA%22%20style%3D%22whiteSpace%3Dwrap%3Bhtml%3D1%3Baspect%3Dfixed%3B%22%20vertex%3D%221%22%20parent%3D%221%22%3E%3CmxGeometry%20x%3D%22110%22%20y%3D%22170%22%20width%3D%2250%22%20height%3D%2250%22%20as%3D%22geometry%22%2F%3E%3C%2FmxCell%3E%3C%2Froot%3E%3C%2FmxGraphModel%3E&lt;/span&gt;" style="whiteSpace=wrap;html=1;aspect=fixed;" vertex="1" parent="1">
          <mxGeometry x="90" y="230" width="50" height="50" as="geometry" />
        </mxCell>
        <mxCell id="v-lsGg8hNjmcbaT2HnY6-9" value="场" style="whiteSpace=wrap;html=1;aspect=fixed;" vertex="1" parent="1">
          <mxGeometry x="90" y="350" width="50" height="50" as="geometry" />
        </mxCell>
        <mxCell id="v-lsGg8hNjmcbaT2HnY6-19" style="edgeStyle=orthogonalEdgeStyle;rounded=0;orthogonalLoop=1;jettySize=auto;html=1;exitX=0.5;exitY=1;exitDx=0;exitDy=0;" edge="1" parent="1" source="v-lsGg8hNjmcbaT2HnY6-10" target="v-lsGg8hNjmcbaT2HnY6-4">
          <mxGeometry relative="1" as="geometry" />
        </mxCell>
        <mxCell id="v-lsGg8hNjmcbaT2HnY6-10" value="用户行为" style="rounded=0;whiteSpace=wrap;html=1;" vertex="1" parent="1">
          <mxGeometry x="294" y="200" width="120" height="60" as="geometry" />
        </mxCell>
        <mxCell id="v-lsGg8hNjmcbaT2HnY6-18" style="edgeStyle=orthogonalEdgeStyle;rounded=0;orthogonalLoop=1;jettySize=auto;html=1;exitX=0.5;exitY=1;exitDx=0;exitDy=0;" edge="1" parent="1" source="v-lsGg8hNjmcbaT2HnY6-14" target="v-lsGg8hNjmcbaT2HnY6-10">
          <mxGeometry relative="1" as="geometry" />
        </mxCell>
        <mxCell id="v-lsGg8hNjmcbaT2HnY6-14" value="埋点体系" style="rounded=0;whiteSpace=wrap;html=1;" vertex="1" parent="1">
          <mxGeometry x="294" y="110" width="120" height="60" as="geometry" />
        </mxCell>
      </root>
    </mxGraphModel>
  </diagram>
</mxfile>
